<svg id="svg" xmlns="http://www.w3.org/2000/svg" xmlns:xlink="http://www.w3.org/1999/xlink" width="400" height="400" viewBox="0, 0, 400,400 undefined"><g id="svgg"><path id="path0" d="M172.606 100.619 C 120.478 103.765,86.312 158.336,105.899 207.164 C 123.472 250.971,174.698 271.410,215.518 250.902 L 220.131 248.584 244.507 272.998 C 270.644 299.175,271.074 299.535,276.330 299.535 C 281.145 299.535,282.686 298.534,291.305 289.805 C 300.603 280.390,301.320 278.561,298.159 272.340 C 297.638 271.316,286.156 259.348,272.643 245.745 L 248.074 221.011 250.647 215.957 C 278.188 161.866,234.230 96.900,172.606 100.619 M188.204 125.778 C 229.439 134.452,248.086 182.595,222.514 214.358 C 197.387 245.568,149.113 239.015,130.461 201.862 C 110.978 163.052,146.004 116.901,188.204 125.778 " stroke="none" fill="#ffffff" fill-rule="evenodd"/></g></svg>